<?xml version="1.0" encoding="utf-8"?>
<!-- Uploaded to: SVG Repo, www.svgrepo.com, Generator: SVG Repo Mixer Tools -->
<svg fill="#000000" width="800px" height="800px" viewBox="0 0 32 32" version="1.1" xmlns="http://www.w3.org/2000/svg">
<title>moon</title>
<path d="M29.223 24.178l-0.021-0.057c-0.116-0.274-0.383-0.463-0.694-0.463-0.104 0-0.202 0.021-0.292 0.059l0.005-0.002c-1.272 0.542-2.752 0.857-4.306 0.857-6.213 0-11.25-5.037-11.25-11.25 0-4.66 2.833-8.658 6.871-10.366l0.074-0.028 0.211-0.089c0.267-0.118 0.45-0.381 0.45-0.687 0-0.375-0.276-0.686-0.635-0.74l-0.004-0.001c-0.653-0.103-1.407-0.161-2.174-0.161-8.145 0-14.748 6.603-14.748 14.748s6.603 14.748 14.748 14.748c4.748 0 8.973-2.244 11.67-5.73l0.025-0.034c0.097-0.125 0.155-0.285 0.155-0.458 0-0.127-0.031-0.246-0.086-0.351l0.002 0.004zM22.518 28.24c-1.497 0.637-3.238 1.007-5.066 1.007-7.317 0-13.249-5.932-13.249-13.249 0-7.074 5.543-12.853 12.523-13.23l0.034-0.001c-3.395 2.326-5.594 6.183-5.594 10.554 0 7.043 5.709 12.752 12.752 12.752 0.85 0 1.681-0.083 2.485-0.242l-0.081 0.013c-1.081 0.976-2.339 1.783-3.716 2.364l-0.087 0.033z"></path>
</svg>